<svg width="58" height="58" viewBox="0 0 58 58" fill="none" xmlns="http://www.w3.org/2000/svg">
<g id="instagram">
<path id="bg" d="M48.4003 0.923481L9.41873 1.39682C4.5258 1.45623 0.606874 5.42271 0.665565 10.2562L1.13315 48.7642C1.19184 53.5977 5.20593 57.4678 10.0989 57.4084L49.0804 56.9351C53.9733 56.8757 57.8923 52.9092 57.8336 48.0757L57.366 9.56772C57.3073 4.73422 53.2932 0.864068 48.4003 0.923481Z" fill="#F00073"/>
<g id="instagram_2">
<path d="M29.105 17.2634C33.0032 17.216 33.5348 17.2096 35.1294 17.1902C36.547 17.173 37.26 17.5145 37.7937 17.6831C38.5067 18.0245 39.0404 18.1931 39.5783 18.7118C40.1162 19.2304 40.477 19.7512 40.6627 20.4492C40.8462 20.9722 41.0319 21.6702 41.2261 23.0683C41.2453 24.6436 41.2495 24.9937 41.2984 29.0195C41.3473 33.0454 41.3515 33.3954 41.3707 34.9708C41.3877 36.3711 41.0418 37.0755 40.871 37.6028C40.5251 38.3072 40.3543 38.8345 39.8291 39.366C39.3039 39.8976 38.7766 40.2541 38.07 40.4378C37.5405 40.6193 36.8339 40.8029 35.4185 40.9951C33.8238 41.0145 33.4694 41.0188 29.3941 41.0683C25.3187 41.1178 24.9644 41.1221 23.3697 41.1415C21.9522 41.1587 21.2392 40.8172 20.7055 40.6486C19.9925 40.3072 19.4588 40.1386 18.9208 39.6199C18.3829 39.1013 18.0221 38.5805 17.8364 37.8825C17.6529 37.3595 17.4672 36.6615 17.273 35.2634C17.2539 33.688 17.2496 33.338 17.2007 29.3121C17.1518 25.2863 17.1476 24.9362 17.1285 23.3609C17.1115 21.9606 17.4573 21.2562 17.6281 20.7289C17.974 20.0245 18.1448 19.4972 18.67 18.9656C19.1952 18.4341 19.7225 18.0775 20.4292 17.8939C20.9586 17.7124 21.6652 17.5288 23.0806 17.3365C24.6753 17.3172 25.2069 17.3107 29.105 17.2634ZM29.0732 14.6378C24.9978 14.6873 24.6434 14.6916 23.0487 14.711C21.454 14.7303 20.3952 15.0933 19.5135 15.4542C18.6318 15.815 17.7522 16.3509 16.8769 17.2368C16.0016 18.1227 15.6557 18.8272 15.1369 19.8839C14.7931 20.7633 14.6287 21.8157 14.4706 23.3932C14.4898 24.9685 14.4961 25.4936 14.5429 29.3444C14.5918 33.3702 14.596 33.7203 14.6152 35.2956C14.6343 36.871 15.0014 37.9169 15.3664 38.7878C15.7314 39.6586 16.2736 40.5274 17.1702 41.3918C18.0668 42.2562 18.7798 42.5977 19.8493 43.1099C20.7395 43.4492 21.8047 43.6113 23.4016 43.767C24.9962 43.7476 25.5278 43.7412 29.426 43.6938C33.3241 43.6465 33.8557 43.6401 35.4504 43.6207C37.0451 43.6013 38.104 43.2384 38.9857 42.8775C39.8674 42.5167 40.7469 41.9808 41.6222 41.0949C42.4975 40.2089 42.8434 39.5045 43.3622 38.4478C43.706 37.5683 43.8704 36.516 44.0285 34.9385C44.0094 33.3632 44.003 32.8381 43.9562 28.9873C43.9095 25.1365 43.9031 24.6114 43.884 23.036C43.8648 21.4607 43.4977 20.4148 43.1327 19.5439C42.7677 18.673 42.2255 17.8043 41.3289 16.9399C40.4324 16.0755 39.7194 15.734 38.6498 15.2218C37.7597 14.8825 36.6944 14.7203 35.0976 14.5647C33.5029 14.584 33.1485 14.5883 29.0732 14.6378Z" fill="white"/>
<path d="M29.1582 21.6393C24.9056 21.6909 21.5794 25.0575 21.6304 29.2584C21.6815 33.4592 25.0884 36.744 29.341 36.6924C33.5935 36.6408 36.9197 33.2742 36.8687 29.0733C36.8177 24.8725 33.4107 21.5876 29.1582 21.6393ZM29.3091 34.0669C26.6512 34.0991 24.3223 32.0267 24.2883 29.2261C24.2564 26.6005 26.355 24.2992 29.19 24.2648C31.8479 24.2325 34.1768 26.305 34.2108 29.1056C34.2427 31.7311 31.9669 34.0346 29.3091 34.0669Z" fill="white"/>
<path d="M36.9736 23.1199C37.9522 23.1081 38.736 22.3148 38.7242 21.3481C38.7125 20.3814 37.9097 19.6073 36.9311 19.6192C35.9525 19.6311 35.1687 20.4244 35.1805 21.3911C35.1922 22.3578 35.995 23.1318 36.9736 23.1199Z" fill="white"/>
</g>
</g>
</svg>
