<svg width="57" height="57" viewBox="0 0 57 57" fill="none" xmlns="http://www.w3.org/2000/svg">
<g id="pinterest">
<path id="bg" d="M46.3422 1.04177L8.61228 2.0181C3.87645 2.14065 0.135335 6.02882 0.256277 10.7026L1.21981 47.938C1.34075 52.6117 5.27795 56.3012 10.0138 56.1787L47.7437 55.2023C52.4796 55.0798 56.2207 51.1916 56.0997 46.5179L55.1362 9.28247C55.0153 4.60871 51.0781 0.919219 46.3422 1.04177Z" fill="#E60023"/>
<path id="pinterest_2" d="M27.8276 15.07C20.2816 15.2653 14.2653 21.5181 14.458 28.9652C14.6025 34.5505 18.1552 39.2008 23.0097 41.1076C22.9834 40.092 22.9571 39.0765 23.1024 38.0566C23.4147 36.863 24.6247 30.5651 24.6247 30.5651C24.6247 30.5651 24.0883 29.7322 24.0532 28.3782C24.0007 26.3471 25.1618 24.7928 26.5338 24.7573C27.7343 24.7262 28.4421 25.5548 28.4728 26.7395C28.5035 27.9243 27.6941 29.8082 27.3949 31.5096C27.087 32.8725 28.1466 34.0307 29.6901 33.9907C32.2626 33.9242 33.8944 30.664 33.7893 26.6019C33.7105 23.5554 31.5955 21.4084 27.994 21.5016C23.878 21.6081 21.3844 24.7212 21.472 28.1062C21.5026 29.291 21.8675 30.1284 22.3996 30.7921C22.5798 31.1261 22.7513 31.1217 22.5886 31.4646C22.5929 31.6339 22.439 32.3153 22.2719 32.489C22.1091 32.832 21.942 33.0057 21.5946 32.8453C19.6862 32.0478 18.7762 30.039 18.7148 27.6695C18.6141 23.7767 21.7544 19.1226 28.2713 18.9539C33.5878 18.8164 37.1142 22.4511 37.2193 26.5132C37.355 31.76 34.5447 35.8975 30.0857 36.0129C28.5422 36.0528 27.1483 35.2421 26.6119 34.4091C26.6119 34.4091 25.8332 37.4778 25.6792 38.1593C25.3625 39.1837 24.8743 40.2125 24.3817 41.0721C25.591 41.3795 26.9673 41.5132 28.3393 41.4777C35.8853 41.2825 41.9016 35.0296 41.7089 27.5826C41.7053 20.8081 35.3736 14.8748 27.8276 15.07Z" fill="white"/>
</g>
</svg>
