<svg width="58" height="58" viewBox="0 0 58 58" fill="none" xmlns="http://www.w3.org/2000/svg">
<g id="twitter">
<path id="bg" d="M48.1957 0.898714L8.99997 1.23587C4.08016 1.27819 0.125398 5.21167 0.166773 10.0215L0.496397 48.3413C0.537771 53.1512 4.55961 57.0161 9.47943 56.9737L48.6751 56.6366C53.5949 56.5943 57.5497 52.6608 57.5083 47.8509L57.1787 9.53113C57.1373 4.72126 53.1155 0.856394 48.1957 0.898714Z" fill="#1DA1F2"/>
<path id="twitter_2" d="M43.0156 20.1046C41.9512 20.6363 40.8837 20.8197 39.638 21.0046C40.8792 20.2971 41.761 19.2444 42.1053 17.8479C41.0424 18.5538 39.7982 18.9129 38.3759 19.2735C37.298 18.2376 35.6885 17.5547 34.085 17.5685C30.3436 17.6007 27.523 21.1088 28.4438 24.5848C23.6319 24.452 19.3365 22.2244 16.2778 18.7668C14.6968 21.3933 15.6161 24.6951 18.1253 26.4155C17.2345 26.4231 16.3407 26.0824 15.4469 25.7417C15.4694 28.3544 17.4502 30.7761 20.1286 31.4498C19.2393 31.6317 18.35 31.8135 17.4576 31.647C18.1898 33.9052 20.3427 35.6286 23.0151 35.6057C20.8907 37.1917 17.6912 38.0902 14.6595 37.7679C17.3454 39.3125 20.3832 40.3315 23.5901 40.3039C34.458 40.2105 40.4391 31.2751 40.0123 23.0917C41.2535 22.3842 42.3135 21.33 43.0156 20.1046Z" fill="white"/>
</g>
</svg>
