<svg width="58" height="57" viewBox="0 0 58 57" fill="none" xmlns="http://www.w3.org/2000/svg">
<g id="youtube">
<path id="bg" d="M47.9054 0.0575556L9.38355 0.708304C4.54831 0.789985 0.694986 4.78775 0.776914 9.63757L1.42962 48.2756C1.51155 53.1254 5.4977 56.9907 10.3329 56.909L48.8548 56.2583C53.6901 56.1766 57.5434 52.1788 57.4615 47.329L56.8088 8.69102C56.7268 3.84121 52.7407 -0.0241258 47.9054 0.0575556Z" fill="#FF0000"/>
<path id="youtube_2" d="M42.4766 21.7268C42.135 20.4948 41.2656 19.6104 40.0422 19.2505C37.9445 18.7087 29.0133 18.6458 29.0133 18.6458C29.0133 18.6458 20.2574 18.5841 17.9771 19.095C16.7488 19.4377 15.867 20.3098 15.5081 21.5368C15.1417 23.8178 15.1096 28.3846 15.1096 28.3846C15.1096 28.3846 15.0774 32.9515 15.5867 35.2386C15.9282 36.4706 16.7976 37.355 18.021 37.7149C20.1187 38.2567 29.0499 38.3196 29.0499 38.3196C29.0499 38.3196 37.8059 38.3813 40.0861 37.8704C41.3144 37.5277 42.1963 36.6557 42.5552 35.4286C43.0966 33.1489 43.1288 28.582 43.1288 28.582C43.1288 28.582 43.161 24.0152 42.4766 21.7268ZM26.2875 32.6791L26.3469 24.248L33.6723 28.5154L26.2875 32.6791Z" fill="white"/>
</g>
</svg>
